<?xml version="1.0" encoding="iso-8859-1"?>
<!-- Uploaded to: SVG Repo, www.svgrepo.com, Generator: SVG Repo Mixer Tools -->
<!DOCTYPE svg PUBLIC "-//W3C//DTD SVG 1.1//EN" "http://www.w3.org/Graphics/SVG/1.1/DTD/svg11.dtd">
<svg fill="#000000" height="800px" width="800px" version="1.1" id="Capa_1" xmlns="http://www.w3.org/2000/svg" xmlns:xlink="http://www.w3.org/1999/xlink" 
	 viewBox="0 0 208.623 208.623" xml:space="preserve">
<path d="M170.683,124.965c12.06-13.74,18.663-31.166,18.663-49.615c0-20.126-7.838-39.048-22.069-53.28
	C153.045,7.838,134.123,0,113.997,0C95.547,0,78.122,6.603,64.381,18.663L54.099,8.381c-1.953-1.952-5.118-1.952-7.071,0
	c-37.001,37.002-37.001,97.208,0,134.21c16.708,16.708,38.55,26.415,61.968,27.656v28.377H59.042c-2.761,0-5,2.239-5,5s2.239,5,5,5
	h109.91c2.761,0,5-2.239,5-5s-2.239-5-5-5h-49.955v-28.36c23.522-1.179,45.468-10.899,62.242-27.672
	c1.953-1.953,1.953-5.119,0-7.071L170.683,124.965z M114.133,160.386c-22.678,0-43.998-8.831-60.034-24.867
	C22.182,103.603,21.037,52.39,50.667,19.09l6.645,6.645c-25.907,29.563-24.784,74.705,3.405,102.894
	c14.232,14.231,33.154,22.069,53.28,22.069c18.449,0,35.875-6.603,49.615-18.663l6.918,6.918
	C154.975,152.811,135.136,160.386,114.133,160.386z"/>
</svg>